<svg xmlns="http://www.w3.org/2000/svg" width="100" height="100" class="icon" viewBox="0 0 1024 1024"><path fill="#FFA726" d="M128 554.667a85.333 85.333 0 1 0 170.667 0 85.333 85.333 0 1 0-170.667 0ZM725.333 554.667a85.333 85.333 0 1 0 170.667 0 85.333 85.333 0 1 0-170.667 0Z"/><path fill="#FFB74D" d="M832 405.333c0-270.933-640-177.066-640 0v213.334c0 177.066 142.933 320 320 320s320-142.934 320-320V405.333z"/><path fill="#FF5722" d="M512 64c-200.533 0-362.667 162.133-362.667 362.667V499.2L192 533.333v-64l448-209.066 192 209.066v64l42.667-34.133v-72.533C874.667 256 753.067 64 512 64z"/><path fill="#784719" d="M618.667 554.667a42.667 42.667 0 1 0 85.333 0 42.667 42.667 0 1 0-85.333 0ZM320 554.667a42.667 42.667 0 1 0 85.333 0 42.667 42.667 0 1 0-85.333 0Z"/><path fill="#757575" d="M917.333 512c-12.8 0-21.333 8.533-21.333 21.333V384c0-187.733-153.6-341.333-341.333-341.333H405.333C392.533 42.667 384 51.2 384 64s8.533 21.333 21.333 21.333h149.334c164.266 0 298.666 134.4 298.666 298.667v213.333c0 12.8 8.534 21.334 21.334 21.334S896 610.133 896 597.333V640c0 83.2-66.133 149.333-149.333 149.333H512c-12.8 0-21.333 8.534-21.333 21.334S499.2 832 512 832h234.667c106.666 0 192-85.333 192-192V533.333c0-12.8-8.534-21.333-21.334-21.333z"/><path fill="#37474F" d="M917.333 469.333H896c-23.467 0-42.667 19.2-42.667 42.667v85.333C853.333 620.8 872.533 640 896 640h21.333C940.8 640 960 620.8 960 597.333V512c0-23.467-19.2-42.667-42.667-42.667zM469.333 810.667a42.667 42.667 0 1 0 85.334 0 42.667 42.667 0 1 0-85.334 0Z"/></svg>