<svg xmlns="http://www.w3.org/2000/svg" xml:space="preserve" width="800" height="800" fill="#353739" viewBox="0 0 33.834 33.834"><path d="M32.253 29.334v4.5H1.581v-4.501c0-2.125 1.832-4.741 4.07-5.804l4.98-2.366 3.457 7.204 1.77-4.799c.349.066.695.154 1.059.154s.709-.088 1.059-.154l1.68 4.563 3.389-7.048 5.141 2.445c2.235 1.063 4.067 3.679 4.067 5.806zM6.105 13.562v-3.25c0-.551.287-1.034.72-1.312.581-5.058 4.883-9 10.094-9s9.514 3.942 10.096 9c.432.278.719.761.719 1.312v3.25a1.563 1.563 0 1 1-3.126 0v-.683c-.846 4.255-3.961 8.205-7.688 8.205s-6.842-3.95-7.688-8.205v.683c0 .7-.465 1.286-1.1 1.485a9.12 9.12 0 0 0 3.908 5.146c.352-.116.796-.094 1.227.13.692.36 1.045 1.06.783 1.56-.261.5-1.033.612-1.729.251-.508-.265-.83-.71-.864-1.126a10.13 10.13 0 0 1-4.37-5.998 1.56 1.56 0 0 1-.982-1.448zM7.89 8.635c.047.003.092.004.137.021a.497.497 0 0 1 .252.218c.339.144.609.407.775.733C9.515 5.286 12.855 3 16.917 3s7.402 2.286 7.863 6.607a1.55 1.55 0 0 1 1.185-.837c-.676-4.393-4.47-7.771-9.048-7.771C12.386 1 8.622 4.309 7.89 8.635z"/></svg>